<svg viewBox="0 0 200 200" xmlns="http://www.w3.org/2000/svg">
  <path fill="#CCCCCC" d="M41.5,-74.2C53.8,-64.7,63.9,-53.8,72.9,-41.1C81.8,-28.5,89.5,-14.3,91.5,1.1C93.4,16.5,89.6,33,80.8,45.8C71.9,58.6,58.2,67.7,43.9,72.8C29.6,77.9,14.8,78.9,-0.9,80.5C-16.6,82.1,-33.3,84.3,-46.6,78.7C-59.9,73,-69.9,59.6,-76.7,45.2C-83.5,30.7,-87.1,15.4,-85.5,1C-83.8,-13.4,-76.8,-26.9,-68.2,-38.3C-59.7,-49.7,-49.7,-59.2,-38,-69C-26.4,-78.9,-13.2,-89.1,0.7,-90.3C14.6,-91.5,29.2,-83.6,41.5,-74.2Z" transform="translate(100 100)" />
</svg>